<svg width="1096" height="575" viewBox="0 0 1096 575" fill="none" xmlns="http://www.w3.org/2000/svg">
<g clip-path="url(#clip0)">
<g opacity="0.1">
<path opacity="0.1" d="M469.42 376.378C475.705 376.378 480.8 369.707 480.8 361.478C480.8 353.249 475.705 346.578 469.42 346.578C463.135 346.578 458.04 353.249 458.04 361.478C458.04 369.707 463.135 376.378 469.42 376.378Z" fill="#3F3D56"/>
<path opacity="0.1" d="M478.43 297.728C480.018 294.956 480.839 291.812 480.81 288.618C480.81 280.388 475.71 273.718 469.42 273.718C463.13 273.718 458 280.408 458 288.638C457.971 291.832 458.792 294.976 460.38 297.748C458.82 300.529 458.001 303.664 458.001 306.853C458.001 310.042 458.82 313.177 460.38 315.958C458.82 318.739 458.001 321.874 458.001 325.063C458.001 328.252 458.82 331.387 460.38 334.168C458.79 336.939 457.968 340.084 458 343.278C458 351.498 463.1 358.178 469.38 358.178C475.66 358.178 480.77 351.498 480.77 343.278C480.802 340.084 479.98 336.939 478.39 334.168C479.95 331.387 480.769 328.252 480.769 325.063C480.769 321.874 479.95 318.739 478.39 315.958C479.95 313.177 480.769 310.042 480.769 306.853C480.769 303.664 479.95 300.529 478.39 297.748L478.43 297.728Z" fill="#3F3D56"/>
<path opacity="0.1" d="M469.42 285.328C475.705 285.328 480.8 278.657 480.8 270.428C480.8 262.199 475.705 255.528 469.42 255.528C463.135 255.528 458.04 262.199 458.04 270.428C458.04 278.657 463.135 285.328 469.42 285.328Z" fill="#3F3D56"/>
<path opacity="0.1" d="M469.42 267.118C475.705 267.118 480.8 260.447 480.8 252.218C480.8 243.989 475.705 237.318 469.42 237.318C463.135 237.318 458.04 243.989 458.04 252.218C458.04 260.447 463.135 267.118 469.42 267.118Z" fill="#3F3D56"/>
<path opacity="0.1" d="M426.82 127.588C425.26 125.611 423.844 123.526 422.58 121.348L452.48 116.438L420.14 116.678C417.044 109.924 415.358 102.609 415.186 95.1814C415.014 87.7534 416.36 80.3685 419.14 73.4783L462.53 95.9883L422.53 66.5683C426.249 60.0308 431.28 54.3332 437.307 49.8338C443.334 45.3344 450.226 42.1304 457.551 40.4233C464.876 38.7161 472.475 38.5427 479.87 39.9139C487.265 41.2851 494.296 44.1713 500.522 48.3911C506.748 52.6109 512.034 58.073 516.047 64.434C520.06 70.7951 522.714 77.9175 523.842 85.3537C524.969 92.7899 524.547 100.379 522.6 107.643C520.653 114.908 517.225 121.692 512.53 127.568C514.955 130.648 517.04 133.981 518.75 137.508L479.92 157.728L521.31 143.838C524.219 152.43 524.939 161.612 523.404 170.552C521.869 179.492 518.128 187.908 512.52 195.038C518.846 203.08 522.782 212.739 523.877 222.912C524.972 233.086 523.182 243.362 518.712 252.565C514.242 261.769 507.272 269.529 498.6 274.959C489.927 280.388 479.902 283.267 469.67 283.267C459.438 283.267 449.413 280.388 440.74 274.959C432.068 269.529 425.098 261.769 420.628 252.565C416.158 243.362 414.368 233.086 415.463 222.912C416.558 212.739 420.494 203.08 426.82 195.038C419.26 185.428 415.149 173.555 415.149 161.328C415.149 149.101 419.26 137.228 426.82 127.618V127.588Z" fill="#66BFBF"/>
<path opacity="0.1" d="M524.19 161.298C524.21 173.529 520.097 185.407 512.52 195.008C518.846 203.05 522.782 212.709 523.877 222.882C524.972 233.056 523.182 243.331 518.712 252.535C514.242 261.739 507.272 269.499 498.6 274.929C489.927 280.358 479.902 283.237 469.67 283.237C459.438 283.237 449.413 280.358 440.74 274.929C432.068 269.499 425.098 261.739 420.628 252.535C416.158 243.331 414.368 233.056 415.463 222.882C416.558 212.709 420.494 203.05 426.82 195.008C419.51 185.728 524.19 155.178 524.19 161.298Z" fill="black"/>
</g>
<g opacity="0.1">
<path opacity="0.1" d="M602.28 340.748C606.98 340.748 610.79 335.765 610.79 329.618C610.79 323.471 606.98 318.488 602.28 318.488C597.58 318.488 593.77 323.471 593.77 329.618C593.77 335.765 597.58 340.748 602.28 340.748Z" fill="#3F3D56"/>
<path opacity="0.1" d="M609 281.988C610.183 279.919 610.794 277.572 610.77 275.188C610.77 269.038 606.96 264.048 602.27 264.048C597.58 264.048 593.76 269.048 593.76 275.188C593.734 277.573 594.349 279.921 595.54 281.988C594.373 284.066 593.76 286.41 593.76 288.793C593.76 291.176 594.373 293.52 595.54 295.598C594.373 297.676 593.76 300.02 593.76 302.403C593.76 304.786 594.373 307.13 595.54 309.208C594.349 311.275 593.734 313.623 593.76 316.008C593.76 322.158 597.57 327.148 602.27 327.148C606.97 327.148 610.77 322.148 610.77 316.008C610.794 313.624 610.183 311.277 609 309.208C610.158 307.127 610.765 304.785 610.765 302.403C610.765 300.021 610.158 297.679 609 295.598C610.158 293.517 610.765 291.175 610.765 288.793C610.765 286.411 610.158 284.069 609 281.988Z" fill="#3F3D56"/>
<path opacity="0.1" d="M602.28 272.708C606.98 272.708 610.79 267.725 610.79 261.578C610.79 255.431 606.98 250.448 602.28 250.448C597.58 250.448 593.77 255.431 593.77 261.578C593.77 267.725 597.58 272.708 602.28 272.708Z" fill="#3F3D56"/>
<path opacity="0.1" d="M602.28 259.098C606.98 259.098 610.79 254.115 610.79 247.968C610.79 241.821 606.98 236.838 602.28 236.838C597.58 236.838 593.77 241.821 593.77 247.968C593.77 254.115 597.58 259.098 602.28 259.098Z" fill="#3F3D56"/>
<path opacity="0.1" d="M570.44 154.838C569.272 153.363 568.213 151.806 567.27 150.178L589.62 146.508L565.45 146.688C563.131 141.642 561.866 136.175 561.732 130.623C561.598 125.071 562.598 119.55 564.67 114.398L597.1 131.228L567.19 109.228C569.987 104.376 573.754 100.153 578.257 96.8224C582.759 93.4915 587.899 91.1244 593.357 89.8688C598.815 88.6132 604.473 88.4961 609.978 89.5248C615.483 90.5535 620.717 92.7059 625.353 95.8476C629.989 98.9894 633.928 103.053 636.924 107.785C639.919 112.517 641.907 117.815 642.764 123.35C643.62 128.884 643.327 134.536 641.901 139.952C640.476 145.368 637.95 150.432 634.48 154.828C636.29 157.132 637.849 159.623 639.13 162.258L610.13 177.328L641.06 166.948C643.233 173.369 643.77 180.23 642.622 186.91C641.475 193.591 638.68 199.88 634.49 205.208C639.224 211.216 642.171 218.434 642.993 226.038C643.816 233.642 642.482 241.325 639.144 248.206C635.805 255.087 630.597 260.89 624.114 264.949C617.632 269.009 610.138 271.162 602.49 271.162C594.842 271.162 587.348 269.009 580.866 264.949C574.383 260.89 569.175 255.087 565.836 248.206C562.498 241.325 561.164 233.642 561.987 226.038C562.809 218.434 565.756 211.216 570.49 205.208C564.84 198.027 561.769 189.155 561.769 180.018C561.769 170.881 564.84 162.009 570.49 154.828L570.44 154.838Z" fill="#66BFBF"/>
<path opacity="0.1" d="M643.2 180.028C643.214 189.167 640.141 198.043 634.48 205.218C639.214 211.226 642.16 218.444 642.983 226.048C643.806 233.652 642.472 241.335 639.134 248.216C635.795 255.097 630.587 260.9 624.104 264.959C617.622 269.019 610.128 271.172 602.48 271.172C594.832 271.172 587.338 269.019 580.856 264.959C574.373 260.9 569.165 255.097 565.826 248.216C562.488 241.335 561.154 233.652 561.976 226.048C562.799 218.444 565.746 211.226 570.48 205.218C565 198.288 643.2 175.458 643.2 180.028Z" fill="black"/>
</g>
<g opacity="0.1">
<path opacity="0.1" d="M1028.58 336.378C1034.86 336.378 1039.96 329.707 1039.96 321.478C1039.96 313.249 1034.86 306.578 1028.58 306.578C1022.29 306.578 1017.2 313.249 1017.2 321.478C1017.2 329.707 1022.29 336.378 1028.58 336.378Z" fill="#3F3D56"/>
<path opacity="0.1" d="M1019.57 257.728C1017.98 254.956 1017.16 251.812 1017.19 248.618C1017.19 240.388 1022.29 233.718 1028.58 233.718C1034.87 233.718 1039.96 240.388 1039.96 248.618C1039.99 251.812 1039.17 254.956 1037.58 257.728C1039.14 260.509 1039.96 263.644 1039.96 266.833C1039.96 270.022 1039.14 273.157 1037.58 275.938C1039.14 278.719 1039.96 281.854 1039.96 285.043C1039.96 288.232 1039.14 291.367 1037.58 294.148C1039.17 296.919 1039.99 300.064 1039.96 303.258C1039.96 311.478 1034.86 318.158 1028.58 318.158C1022.3 318.158 1017.19 311.478 1017.19 303.258C1017.16 300.064 1017.98 296.919 1019.57 294.148C1018.01 291.367 1017.19 288.232 1017.19 285.043C1017.19 281.854 1018.01 278.719 1019.57 275.938C1018.01 273.157 1017.19 270.022 1017.19 266.833C1017.19 263.644 1018.01 260.509 1019.57 257.728Z" fill="#3F3D56"/>
<path opacity="0.1" d="M1028.58 245.328C1034.86 245.328 1039.96 238.657 1039.96 230.428C1039.96 222.199 1034.86 215.528 1028.58 215.528C1022.29 215.528 1017.2 222.199 1017.2 230.428C1017.2 238.657 1022.29 245.328 1028.58 245.328Z" fill="#3F3D56"/>
<path opacity="0.1" d="M1028.58 227.118C1034.86 227.118 1039.96 220.447 1039.96 212.218C1039.96 203.989 1034.86 197.318 1028.58 197.318C1022.29 197.318 1017.2 203.989 1017.2 212.218C1017.2 220.447 1022.29 227.118 1028.58 227.118Z" fill="#3F3D56"/>
<path opacity="0.1" d="M1071.18 87.5883C1072.74 85.6115 1074.16 83.5262 1075.42 81.3483L1045.52 76.4383L1077.86 76.6783C1080.96 69.9242 1082.64 62.6094 1082.81 55.1814C1082.99 47.7534 1081.64 40.3685 1078.86 33.4783L1035.47 55.9883L1075.47 26.5683C1071.75 20.0308 1066.72 14.3332 1060.69 9.83381C1054.67 5.33443 1047.77 2.13044 1040.45 0.423276C1033.12 -1.28389 1025.53 -1.45731 1018.13 -0.0860946C1010.74 1.28513 1003.7 4.17134 997.48 8.39111C991.25 12.6109 985.966 18.073 981.953 24.434C977.94 30.7951 975.286 37.9175 974.158 45.3537C973.031 52.7899 973.453 60.3789 975.4 67.6438C977.347 74.9087 980.775 81.6923 985.47 87.5683C983.045 90.6485 980.96 93.9811 979.25 97.5083L1018.08 117.728L976.69 103.838C973.781 112.43 973.061 121.612 974.596 130.552C976.131 139.492 979.872 147.908 985.48 155.038C979.154 163.08 975.218 172.739 974.123 182.912C973.028 193.086 974.818 203.362 979.288 212.565C983.758 221.769 990.73 229.529 999.4 234.959C1008.07 240.388 1018.1 243.267 1028.33 243.267C1038.56 243.267 1048.59 240.388 1057.26 234.959C1065.93 229.529 1072.9 221.769 1077.37 212.565C1081.84 203.362 1083.63 193.086 1082.54 182.912C1081.44 172.739 1077.51 163.08 1071.18 155.038C1078.74 145.428 1082.85 133.555 1082.85 121.328C1082.85 109.101 1078.74 97.2283 1071.18 87.6183V87.5883Z" fill="#6C63FF"/>
<path opacity="0.1" d="M973.81 121.298C973.79 133.529 977.903 145.407 985.48 155.008C979.154 163.05 975.218 172.709 974.123 182.882C973.028 193.056 974.818 203.331 979.288 212.535C983.758 221.739 990.73 229.499 999.4 234.929C1008.07 240.358 1018.1 243.237 1028.33 243.237C1038.56 243.237 1048.59 240.358 1057.26 234.929C1065.93 229.499 1072.9 221.739 1077.37 212.535C1081.84 203.331 1083.63 193.056 1082.54 182.882C1081.44 172.709 1077.51 163.05 1071.18 155.008C1078.49 145.728 973.81 115.178 973.81 121.298Z" fill="black"/>
</g>
<g opacity="0.1">
<path opacity="0.1" d="M918.72 334.748C923.42 334.748 927.23 329.765 927.23 323.618C927.23 317.471 923.42 312.488 918.72 312.488C914.02 312.488 910.21 317.471 910.21 323.618C910.21 329.765 914.02 334.748 918.72 334.748Z" fill="#3F3D56"/>
<path opacity="0.1" d="M912 275.988C910.817 273.919 910.206 271.572 910.23 269.188C910.23 263.038 914.04 258.048 918.73 258.048C923.42 258.048 927.24 263.048 927.24 269.188C927.266 271.573 926.651 273.921 925.46 275.988C926.627 278.066 927.24 280.41 927.24 282.793C927.24 285.176 926.627 287.52 925.46 289.598C926.627 291.676 927.24 294.02 927.24 296.403C927.24 298.786 926.627 301.13 925.46 303.208C926.651 305.275 927.266 307.623 927.24 310.008C927.24 316.158 923.43 321.148 918.73 321.148C914.03 321.148 910.23 316.148 910.23 310.008C910.206 307.624 910.817 305.277 912 303.208C910.842 301.127 910.235 298.785 910.235 296.403C910.235 294.021 910.842 291.679 912 289.598C910.842 287.517 910.235 285.175 910.235 282.793C910.235 280.411 910.842 278.069 912 275.988Z" fill="#3F3D56"/>
<path opacity="0.1" d="M918.72 266.708C923.42 266.708 927.23 261.725 927.23 255.578C927.23 249.431 923.42 244.448 918.72 244.448C914.02 244.448 910.21 249.431 910.21 255.578C910.21 261.725 914.02 266.708 918.72 266.708Z" fill="#3F3D56"/>
<path opacity="0.1" d="M918.72 253.098C923.42 253.098 927.23 248.115 927.23 241.968C927.23 235.821 923.42 230.838 918.72 230.838C914.02 230.838 910.21 235.821 910.21 241.968C910.21 248.115 914.02 253.098 918.72 253.098Z" fill="#3F3D56"/>
<path opacity="0.1" d="M950.56 148.838C951.728 147.363 952.787 145.806 953.73 144.178L931.38 140.508L955.55 140.688C957.869 135.642 959.134 130.175 959.268 124.623C959.402 119.071 958.402 113.55 956.33 108.398L923.9 125.228L953.81 103.228C951.013 98.3765 947.246 94.1533 942.743 90.8224C938.241 87.4915 933.101 85.1244 927.643 83.8688C922.185 82.6132 916.527 82.4961 911.022 83.5248C905.517 84.5535 900.283 86.7059 895.647 89.8476C891.011 92.9894 887.072 97.053 884.076 101.785C881.081 106.517 879.093 111.815 878.236 117.35C877.38 122.884 877.673 128.536 879.099 133.952C880.524 139.368 883.05 144.432 886.52 148.828C884.71 151.132 883.151 153.623 881.87 156.258L910.87 171.328L880 160.958C877.827 167.379 877.291 174.24 878.438 180.92C879.585 187.601 882.38 193.89 886.57 199.218C881.836 205.226 878.89 212.444 878.067 220.048C877.244 227.652 878.578 235.335 881.916 242.216C885.255 249.097 890.464 254.9 896.946 258.959C903.428 263.019 910.922 265.172 918.57 265.172C926.218 265.172 933.712 263.019 940.194 258.959C946.677 254.9 951.885 249.097 955.224 242.216C958.562 235.335 959.896 227.652 959.074 220.048C958.251 212.444 955.304 205.226 950.57 199.218C956.22 192.037 959.291 183.165 959.291 174.028C959.291 164.891 956.22 156.019 950.57 148.838H950.56Z" fill="#66BFBF"/>
<path opacity="0.1" d="M877.8 174.028C877.786 183.167 880.859 192.043 886.52 199.218C881.786 205.226 878.839 212.444 878.017 220.048C877.194 227.652 878.528 235.335 881.866 242.216C885.205 249.097 890.413 254.9 896.895 258.959C903.378 263.019 910.872 265.172 918.52 265.172C926.168 265.172 933.662 263.019 940.144 258.959C946.627 254.9 951.835 249.097 955.174 242.216C958.512 235.335 959.846 227.652 959.023 220.048C958.201 212.444 955.254 205.226 950.52 199.218C956 192.288 877.8 169.458 877.8 174.028Z" fill="black"/>
</g>
<g opacity="0.1">
<path opacity="0.1" d="M51.59 336.378C57.875 336.378 62.97 329.707 62.97 321.478C62.97 313.249 57.875 306.578 51.59 306.578C45.305 306.578 40.21 313.249 40.21 321.478C40.21 329.707 45.305 336.378 51.59 336.378Z" fill="#3F3D56"/>
<path opacity="0.1" d="M60.59 257.728C62.1776 254.956 62.999 251.812 62.97 248.618C62.97 240.388 57.87 233.718 51.59 233.718C45.31 233.718 40.21 240.388 40.21 248.618C40.1779 251.811 40.9959 254.955 42.58 257.728C41.0255 260.511 40.2093 263.645 40.2093 266.833C40.2093 270.021 41.0255 273.155 42.58 275.938C41.0255 278.721 40.2093 281.855 40.2093 285.043C40.2093 288.231 41.0255 291.365 42.58 294.148C40.9927 296.919 40.1745 300.064 40.21 303.258C40.21 311.478 45.3 318.158 51.59 318.158C57.88 318.158 63 311.498 63 303.278C63.0319 300.084 62.2103 296.939 60.62 294.168C62.1801 291.387 62.9994 288.252 62.9994 285.063C62.9994 281.874 62.1801 278.739 60.62 275.958C62.1801 273.177 62.9994 270.042 62.9994 266.853C62.9994 263.664 62.1801 260.529 60.62 257.748L60.59 257.728Z" fill="#3F3D56"/>
<path opacity="0.1" d="M51.59 245.328C57.875 245.328 62.97 238.657 62.97 230.428C62.97 222.199 57.875 215.528 51.59 215.528C45.305 215.528 40.21 222.199 40.21 230.428C40.21 238.657 45.305 245.328 51.59 245.328Z" fill="#3F3D56"/>
<path opacity="0.1" d="M51.59 227.118C57.875 227.118 62.97 220.447 62.97 212.218C62.97 203.989 57.875 197.318 51.59 197.318C45.305 197.318 40.21 203.989 40.21 212.218C40.21 220.447 45.305 227.118 51.59 227.118Z" fill="#3F3D56"/>
<path opacity="0.1" d="M9 87.5883C7.4438 85.6091 6.027 83.524 4.76 81.3483L34.67 76.4383L2.3 76.7283C-0.796168 69.9742 -2.4818 62.6594 -2.65374 55.2314C-2.82568 47.8034 -1.48034 40.4185 1.3 33.5283L44.7 56.0383L4.7 26.6183C8.4281 20.1002 13.4625 14.4226 19.4876 9.94121C25.5126 5.45982 32.3984 2.27133 39.7134 0.575607C47.0284 -1.12012 54.6148 -1.28652 61.997 0.0868359C69.3793 1.4602 76.3983 4.3437 82.614 8.5566C88.8298 12.7695 94.108 18.221 98.119 24.5693C102.129 30.9176 104.785 38.0259 105.919 45.4486C107.054 52.8713 106.643 60.4484 104.713 67.7049C102.782 74.9614 99.373 81.7408 94.7 87.6183C97.125 90.6985 99.21 94.0311 100.92 97.5583L62.08 117.728L103.48 103.838C106.382 112.431 107.097 121.613 105.561 130.552C104.024 139.491 100.285 147.907 94.68 155.038C101.006 163.08 104.942 172.739 106.037 182.912C107.132 193.086 105.342 203.361 100.872 212.565C96.402 221.769 89.4324 229.529 80.7598 234.959C72.0872 240.388 62.0619 243.267 51.83 243.267C41.5981 243.267 31.5728 240.388 22.9002 234.959C14.2276 229.529 7.2579 221.769 2.7879 212.565C-1.68209 203.361 -3.4719 193.086 -2.37689 182.912C-1.28189 172.739 2.6537 163.08 8.98 155.038C1.4197 145.428 -2.69066 133.555 -2.69066 121.328C-2.69066 109.101 1.4197 97.2283 8.98 87.6183L9 87.5883Z" fill="#66BFBF"/>
<path opacity="0.1" d="M106.35 121.298C106.37 133.529 102.257 145.407 94.68 155.008C101.006 163.05 104.942 172.709 106.037 182.882C107.132 193.056 105.342 203.331 100.872 212.535C96.402 221.739 89.4324 229.499 80.7598 234.929C72.0872 240.358 62.0619 243.237 51.83 243.237C41.5981 243.237 31.5728 240.358 22.9002 234.929C14.2276 229.499 7.2579 221.739 2.7879 212.535C-1.68209 203.331 -3.4719 193.056 -2.37689 182.882C-1.28188 172.709 2.6537 163.05 8.98 155.008C1.67 145.728 106.35 115.178 106.35 121.298Z" fill="black"/>
</g>
<g opacity="0.1">
<path opacity="0.1" d="M161.44 334.748C166.14 334.748 169.95 329.765 169.95 323.618C169.95 317.471 166.14 312.488 161.44 312.488C156.74 312.488 152.93 317.471 152.93 323.618C152.93 329.765 156.74 334.748 161.44 334.748Z" fill="#3F3D56"/>
<path opacity="0.1" d="M168.17 275.988C169.353 273.919 169.964 271.572 169.94 269.188C169.94 263.038 166.14 258.048 161.44 258.048C156.74 258.048 152.93 263.048 152.93 269.188C152.909 271.572 153.523 273.92 154.71 275.988C153.543 278.066 152.93 280.41 152.93 282.793C152.93 285.176 153.543 287.52 154.71 289.598C153.543 291.676 152.93 294.02 152.93 296.403C152.93 298.786 153.543 301.13 154.71 303.208C153.523 305.276 152.909 307.623 152.93 310.008C152.93 316.158 156.74 321.148 161.44 321.148C166.14 321.148 169.94 316.148 169.94 310.008C169.964 307.624 169.353 305.277 168.17 303.208C169.328 301.127 169.935 298.785 169.935 296.403C169.935 294.021 169.328 291.679 168.17 289.598C169.328 287.517 169.935 285.175 169.935 282.793C169.935 280.411 169.328 278.069 168.17 275.988Z" fill="#3F3D56"/>
<path opacity="0.1" d="M161.44 266.708C166.14 266.708 169.95 261.725 169.95 255.578C169.95 249.431 166.14 244.448 161.44 244.448C156.74 244.448 152.93 249.431 152.93 255.578C152.93 261.725 156.74 266.708 161.44 266.708Z" fill="#3F3D56"/>
<path opacity="0.1" d="M161.44 253.098C166.14 253.098 169.95 248.115 169.95 241.968C169.95 235.821 166.14 230.838 161.44 230.838C156.74 230.838 152.93 235.821 152.93 241.968C152.93 248.115 156.74 253.098 161.44 253.098Z" fill="#3F3D56"/>
<path opacity="0.1" d="M129.6 148.838C128.436 147.361 127.376 145.804 126.43 144.178L148.78 140.508L124.61 140.688C122.291 135.642 121.026 130.175 120.892 124.623C120.758 119.071 121.758 113.55 123.83 108.398L156.26 125.228L126.35 103.228C129.147 98.3765 132.914 94.1533 137.417 90.8224C141.919 87.4915 147.059 85.1244 152.517 83.8688C157.975 82.6132 163.633 82.4961 169.138 83.5248C174.643 84.5535 179.877 86.7059 184.513 89.8476C189.149 92.9894 193.088 97.053 196.084 101.785C199.079 106.517 201.067 111.815 201.924 117.35C202.78 122.884 202.487 128.536 201.061 133.952C199.636 139.368 197.11 144.432 193.64 148.828C195.457 151.127 197.016 153.619 198.29 156.258L169.29 171.328L200.22 160.948C202.393 167.369 202.929 174.23 201.782 180.91C200.635 187.591 197.84 193.88 193.65 199.208C198.384 205.216 201.33 212.434 202.153 220.038C202.976 227.642 201.642 235.325 198.304 242.206C194.965 249.087 189.757 254.89 183.274 258.949C176.792 263.009 169.298 265.162 161.65 265.162C154.002 265.162 146.508 263.009 140.026 258.949C133.543 254.89 128.335 249.087 124.996 242.206C121.658 235.325 120.324 227.642 121.147 220.038C121.969 212.434 124.916 205.216 129.65 199.208C124 192.027 120.929 183.155 120.929 174.018C120.929 164.881 124 156.009 129.65 148.828L129.6 148.838Z" fill="#6C63FF"/>
<path opacity="0.1" d="M202.36 174.028C202.374 183.167 199.301 192.043 193.64 199.218C198.374 205.226 201.32 212.444 202.143 220.048C202.966 227.652 201.632 235.335 198.294 242.216C194.955 249.097 189.747 254.9 183.264 258.959C176.782 263.019 169.288 265.172 161.64 265.172C153.992 265.172 146.498 263.019 140.016 258.959C133.533 254.9 128.325 249.097 124.986 242.216C121.648 235.335 120.314 227.652 121.137 220.048C121.959 212.444 124.906 205.226 129.64 199.218C124.14 192.288 202.36 169.458 202.36 174.028Z" fill="black"/>
</g>
<path opacity="0.1" d="M538 501.348C840.652 501.348 1086 497.381 1086 492.488C1086 487.595 840.652 483.628 538 483.628C235.348 483.628 -10 487.595 -10 492.488C-10 497.381 235.348 501.348 538 501.348Z" fill="#66BFBF"/>
<path opacity="0.1" d="M538 574.098C840.652 574.098 1086 570.131 1086 565.238C1086 560.345 840.652 556.378 538 556.378C235.348 556.378 -10 560.345 -10 565.238C-10 570.131 235.348 574.098 538 574.098Z" fill="#66BFBF"/>
<path opacity="0.1" d="M538 349.518C840.652 349.518 1086 345.551 1086 340.658C1086 335.765 840.652 331.798 538 331.798C235.348 331.798 -10 335.765 -10 340.658C-10 345.551 235.348 349.518 538 349.518Z" fill="#66BFBF"/>
<path opacity="0.1" d="M538 425.428C840.652 425.428 1086 421.461 1086 416.568C1086 411.675 840.652 407.708 538 407.708C235.348 407.708 -10 411.675 -10 416.568C-10 421.461 235.348 425.428 538 425.428Z" fill="#66BFBF"/>
<path opacity="0.1" d="M798.79 109.728C795.22 109.054 791.53 109.458 788.19 110.888C786.185 111.781 784.015 112.243 781.82 112.243C779.625 112.243 777.455 111.781 775.45 110.888C773.078 109.847 770.508 109.334 767.918 109.384C765.328 109.434 762.78 110.046 760.45 111.178C759.123 111.883 757.643 112.254 756.14 112.258C750.06 112.258 745.01 106.138 743.96 98.0683C745.157 97.1764 746.174 96.0671 746.96 94.7983C750.52 89.0583 756.03 85.3683 762.23 85.3683C768.43 85.3683 773.87 89.0083 777.43 94.6883C778.49 96.4044 779.977 97.8167 781.745 98.7876C783.513 99.7583 785.503 100.255 787.52 100.228H787.68C792.57 100.178 796.76 104.058 798.79 109.728Z" fill="#6C63FF"/>
<path opacity="0.1" d="M817.3 84.3783L807.48 90.5983L813.48 79.7583C811.79 78.4133 809.7 77.6707 807.54 77.6483H807.38C806.71 77.6574 806.041 77.6072 805.38 77.4983L802 79.6083L803.43 77.0083C801.067 76.1904 799.025 74.6426 797.6 72.5883L791.6 76.3683L795.36 69.5283C791.88 65.3483 787.18 62.7883 782.02 62.7883C775.82 62.7883 770.31 66.4683 766.74 72.2083C765.688 73.9246 764.2 75.3319 762.428 76.2874C760.656 77.2428 758.662 77.7123 756.65 77.6483H756.32C749.48 77.6483 743.94 85.3983 743.94 94.9583C743.94 104.518 749.48 112.278 756.32 112.278C757.822 112.268 759.3 111.898 760.63 111.198C762.959 110.063 765.507 109.448 768.097 109.397C770.687 109.345 773.258 109.857 775.63 110.898C777.633 111.798 779.804 112.263 782 112.263C784.196 112.263 786.367 111.798 788.37 110.898C790.723 109.88 793.268 109.38 795.831 109.43C798.395 109.48 800.918 110.079 803.23 111.188C804.545 111.876 806.006 112.24 807.49 112.248C814.33 112.248 819.87 104.488 819.87 94.9283C819.911 91.2518 819.028 87.6239 817.3 84.3783Z" fill="#6C63FF"/>
<path opacity="0.1" d="M381.26 104.318C378.758 103.845 376.172 104.127 373.83 105.128C372.428 105.754 370.91 106.078 369.375 106.078C367.84 106.078 366.322 105.754 364.92 105.128C363.261 104.399 361.463 104.041 359.652 104.077C357.84 104.113 356.058 104.544 354.43 105.338C353.503 105.821 352.475 106.078 351.43 106.088C347.18 106.088 343.64 101.808 342.9 96.1583C343.748 95.5365 344.471 94.7594 345.03 93.8683C347.52 89.8683 351.38 87.2683 355.72 87.2683C360.06 87.2683 363.87 89.8183 366.36 93.7883C367.104 94.99 368.145 95.979 369.384 96.6589C370.623 97.3387 372.017 97.6865 373.43 97.6683H373.54C376.9 97.6483 379.83 100.368 381.26 104.318Z" fill="#6C63FF"/>
<path opacity="0.1" d="M394.21 86.5883L387.34 90.9483L391.51 83.3583C390.331 82.4147 388.87 81.8936 387.36 81.8783H387.24C386.764 81.8868 386.289 81.85 385.82 81.7683L383.49 83.2483L384.49 81.4283C382.838 80.8538 381.411 79.7724 380.41 78.3383L376.24 80.9783L378.88 76.1983C377.771 74.7667 376.358 73.5995 374.743 72.7815C373.127 71.9634 371.35 71.5148 369.54 71.4683C365.2 71.4683 361.34 74.0483 358.85 78.0683C358.112 79.2702 357.069 80.2557 355.828 80.9248C354.586 81.5939 353.19 81.9228 351.78 81.8783H351.55C346.76 81.8783 342.88 87.2983 342.88 93.9983C342.88 100.698 346.76 106.118 351.55 106.118C352.597 106.11 353.626 105.849 354.55 105.358C356.178 104.568 357.959 104.141 359.768 104.106C361.577 104.072 363.373 104.431 365.03 105.158C366.44 105.801 367.97 106.142 369.52 106.158C371.046 106.155 372.555 105.835 373.95 105.218C375.597 104.505 377.378 104.154 379.172 104.189C380.966 104.223 382.732 104.642 384.35 105.418C385.276 105.903 386.305 106.157 387.35 106.158C392.13 106.158 396.01 100.728 396.01 94.0383C396.05 91.4426 395.431 88.8792 394.21 86.5883Z" fill="#6C63FF"/>
<path opacity="0.1" d="M259.59 182.728C262.089 182.256 264.672 182.538 267.01 183.538C268.413 184.165 269.933 184.488 271.47 184.488C273.007 184.488 274.527 184.165 275.93 183.538C277.589 182.81 279.386 182.452 281.197 182.486C283.008 182.521 284.79 182.948 286.42 183.738C287.344 184.23 288.373 184.491 289.42 184.498C293.67 184.498 297.21 180.208 297.94 174.558C297.092 173.938 296.373 173.161 295.82 172.268C293.32 168.268 289.46 165.678 285.13 165.678C280.8 165.678 276.98 168.218 274.48 172.198C273.737 173.398 272.697 174.386 271.46 175.066C270.223 175.746 268.831 176.094 267.42 176.078H267.31C263.94 176.098 261 178.808 259.59 182.728Z" fill="#6C63FF"/>
<path opacity="0.1" d="M246.63 165.028L253.51 169.388L249.33 161.808C250.512 160.861 251.976 160.337 253.49 160.318H253.6C254.079 160.325 254.557 160.291 255.03 160.218L257.36 161.688L256.36 159.878C258.008 159.302 259.433 158.221 260.43 156.788L264.6 159.428L262 154.638C263.109 153.208 264.523 152.042 266.138 151.226C267.754 150.409 269.531 149.963 271.34 149.918C275.67 149.918 279.54 152.498 282.03 156.518C282.767 157.718 283.808 158.703 285.048 159.372C286.288 160.041 287.682 160.371 289.09 160.328H289.33C294.11 160.328 297.99 165.758 297.99 172.448C297.99 179.138 294.11 184.568 289.33 184.568C288.284 184.563 287.255 184.306 286.33 183.818C284.702 183.024 282.92 182.593 281.108 182.557C279.297 182.521 277.499 182.879 275.84 183.608C274.435 184.257 272.907 184.598 271.36 184.608C269.831 184.607 268.319 184.287 266.92 183.668C265.275 182.955 263.496 182.605 261.703 182.639C259.911 182.674 258.147 183.093 256.53 183.868C255.604 184.353 254.575 184.607 253.53 184.608C248.74 184.608 244.86 179.188 244.86 172.488C244.813 169.892 245.422 167.326 246.63 165.028Z" fill="#6C63FF"/>
<path d="M654.31 489.618C656.92 484.778 653.96 478.858 650.56 474.548C647.16 470.238 643 465.748 643.09 460.258C643.22 452.368 651.6 447.698 658.29 443.518C663.258 440.403 667.84 436.71 671.94 432.518C673.655 430.904 675.073 429.002 676.13 426.898C677.52 423.818 677.48 420.298 677.39 416.898C677.103 405.638 676.547 394.385 675.72 383.138" stroke="#3F3D56" stroke-width="4" stroke-miterlimit="10"/>
<path d="M688.45 382.578C688.353 380.515 687.74 378.51 686.665 376.747C685.59 374.984 684.089 373.519 682.3 372.488L679.54 377.938L679.63 371.338C677.127 370.601 674.454 370.678 671.998 371.559C669.542 372.44 667.429 374.078 665.965 376.238C664.5 378.397 663.76 380.966 663.851 383.574C663.941 386.182 664.858 388.693 666.469 390.746C668.08 392.799 670.301 394.287 672.812 394.995C675.324 395.703 677.995 395.595 680.441 394.686C682.887 393.777 684.981 392.114 686.42 389.938C687.86 387.762 688.571 385.184 688.45 382.578Z" fill="#66BFBF"/>
<path d="M666.49 465.898C665.252 468.305 663.255 470.237 660.808 471.394C658.361 472.551 655.601 472.87 652.955 472.301C650.308 471.732 647.924 470.306 646.169 468.245C644.415 466.183 643.389 463.601 643.25 460.898C643.158 459.193 643.431 457.489 644.05 455.898C644.957 453.578 646.545 451.587 648.606 450.188C650.667 448.789 653.104 448.048 655.595 448.062C658.086 448.076 660.514 448.845 662.559 450.267C664.604 451.689 666.17 453.698 667.05 456.028L659.36 462.288L667.82 460.288C667.83 462.237 667.374 464.161 666.49 465.898Z" fill="#66BFBF"/>
<path d="M660.41 441.998C657.389 442.14 654.421 441.166 652.073 439.26C649.725 437.354 648.16 434.65 647.678 431.664C647.196 428.678 647.83 425.62 649.459 423.072C651.088 420.523 653.598 418.664 656.51 417.848L656.44 422.918L659.23 417.398C662.492 417.245 665.681 418.395 668.096 420.594C670.51 422.793 671.952 425.861 672.105 429.123C672.257 432.385 671.108 435.574 668.909 437.989C666.71 440.403 663.642 441.846 660.38 441.998H660.41Z" fill="#66BFBF"/>
<path d="M690.3 422.108C688.391 422.207 686.486 421.859 684.735 421.094C682.984 420.329 681.435 419.166 680.211 417.698C678.987 416.231 678.121 414.498 677.683 412.638C677.245 410.778 677.245 408.841 677.685 406.981C678.125 405.121 678.992 403.389 680.217 401.922C681.443 400.456 682.992 399.294 684.744 398.531C686.496 397.767 688.402 397.421 690.31 397.521C692.219 397.622 694.078 398.165 695.74 399.108L693.57 405.108L698 400.728C699.792 402.371 701.057 404.507 701.636 406.868C702.216 409.229 702.083 411.708 701.255 413.994C700.427 416.279 698.942 418.269 696.985 419.711C695.028 421.153 692.688 421.984 690.26 422.098L690.3 422.108Z" fill="#66BFBF"/>
<path opacity="0.1" d="M686.79 385.858C683.95 386.168 681.19 387.048 678.33 387.228C675.47 387.408 672.33 386.718 670.55 384.508C669.713 383.22 668.952 381.885 668.27 380.508C667.493 379.295 666.428 378.291 665.17 377.588C664.374 379.148 663.919 380.86 663.838 382.61C663.756 384.36 664.048 386.107 664.696 387.734C665.343 389.362 666.33 390.833 667.591 392.048C668.853 393.264 670.359 394.196 672.009 394.783C673.659 395.37 675.416 395.598 677.162 395.452C678.907 395.306 680.601 394.789 682.131 393.935C683.661 393.082 684.991 391.912 686.032 390.504C687.074 389.095 687.802 387.481 688.17 385.768C687.72 385.778 687.25 385.808 686.79 385.858Z" fill="black"/>
<path opacity="0.1" d="M690.3 422.108C688.177 422.208 686.065 421.758 684.168 420.8C682.272 419.842 680.655 418.409 679.476 416.641C678.297 414.874 677.596 412.831 677.441 410.711C677.285 408.592 677.681 406.469 678.59 404.548C679.566 405.207 680.405 406.049 681.06 407.028C681.795 408.43 682.61 409.789 683.5 411.098C685.42 413.348 688.7 414.098 691.67 413.948C694.64 413.798 697.51 412.948 700.47 412.698C700.88 412.698 701.29 412.638 701.71 412.628C701.098 415.234 699.652 417.569 697.593 419.28C695.534 420.99 692.974 421.983 690.3 422.108Z" fill="black"/>
<path opacity="0.1" d="M660.41 441.998C658.309 442.096 656.219 441.655 654.337 440.716C652.455 439.777 650.846 438.372 649.661 436.634C648.477 434.896 647.758 432.884 647.572 430.789C647.386 428.694 647.74 426.587 648.6 424.668C649.615 425.336 650.499 426.183 651.21 427.168C652.016 428.603 652.908 429.989 653.88 431.318C655.95 433.628 659.45 434.448 662.59 434.318C665.73 434.188 668.59 433.508 671.59 433.318C670.843 435.738 669.37 437.869 667.37 439.422C665.369 440.975 662.939 441.874 660.41 441.998Z" fill="black"/>
<path opacity="0.1" d="M666.49 465.898C665.252 468.305 663.255 470.237 660.808 471.394C658.361 472.551 655.601 472.87 652.955 472.301C650.308 471.732 647.924 470.306 646.169 468.245C644.415 466.183 643.389 463.601 643.25 460.898C643.158 459.193 643.431 457.489 644.05 455.898C645.064 456.564 645.974 457.376 646.75 458.308C647.92 459.728 648.69 461.308 650.05 462.678C652.56 465.148 656.63 466.168 660.24 466.258C662.329 466.264 664.416 466.144 666.49 465.898Z" fill="black"/>
<path opacity="0.1" d="M56.49 393.898C55.2517 396.305 53.2546 398.237 50.8077 399.394C48.3609 400.551 45.6008 400.87 42.9546 400.301C40.3083 399.732 37.9235 398.306 36.1692 396.245C34.4149 394.183 33.3889 391.601 33.25 388.898C33.158 387.193 33.4307 385.489 34.05 383.898C35.064 384.564 35.9739 385.376 36.75 386.308C37.92 387.728 38.69 389.308 40.05 390.678C42.56 393.148 46.63 394.168 50.24 394.258C52.3287 394.264 54.4159 394.144 56.49 393.898Z" fill="black"/>
<path d="M450.52 335.248C447.91 330.418 450.87 324.498 454.28 320.188C457.69 315.878 461.83 311.388 461.74 305.898C461.62 297.998 453.24 293.338 446.54 289.158C441.574 286.044 436.995 282.352 432.9 278.158C431.177 276.553 429.755 274.653 428.7 272.548C427.32 269.458 427.36 265.948 427.44 262.548C427.74 251.288 428.297 240.035 429.11 228.788" stroke="#3F3D56" stroke-width="4" stroke-miterlimit="10"/>
<path d="M416.39 228.218C416.485 226.156 417.097 224.151 418.17 222.388C419.243 220.624 420.742 219.16 422.53 218.128L425.29 223.578L425.21 216.978C426.524 216.596 427.892 216.431 429.26 216.488C431.692 216.601 434.035 217.433 435.994 218.878C437.954 220.323 439.44 222.317 440.266 224.607C441.093 226.897 441.221 229.38 440.636 231.743C440.051 234.106 438.778 236.243 436.979 237.883C435.18 239.523 432.935 240.592 430.528 240.956C428.121 241.32 425.66 240.962 423.456 239.928C421.252 238.894 419.405 237.229 418.147 235.145C416.889 233.06 416.278 230.65 416.39 228.218Z" fill="#66BFBF"/>
<path d="M438.34 311.538C439.63 314.05 441.746 316.042 444.331 317.18C446.916 318.318 449.813 318.533 452.538 317.787C455.262 317.042 457.647 315.383 459.293 313.088C460.939 310.793 461.746 308.001 461.578 305.182C461.41 302.363 460.278 299.687 458.371 297.603C456.465 295.519 453.899 294.155 451.106 293.738C448.312 293.322 445.461 293.878 443.029 295.315C440.597 296.751 438.733 298.98 437.75 301.628L445.44 307.888L436.98 305.888C436.973 307.853 437.44 309.791 438.34 311.538Z" fill="#66BFBF"/>
<path d="M444.42 287.638C447.442 287.783 450.412 286.811 452.762 284.905C455.113 283 456.679 280.296 457.163 277.31C457.647 274.323 457.013 271.263 455.384 268.713C453.755 266.164 451.244 264.304 448.33 263.488L448.39 268.558L445.6 263.038C442.339 262.878 439.148 264.019 436.729 266.211C434.31 268.404 432.86 271.467 432.7 274.728C432.63 276.148 432.809 277.57 433.23 278.928C433.968 281.357 435.44 283.498 437.444 285.058C439.447 286.617 441.884 287.519 444.42 287.638Z" fill="#66BFBF"/>
<path d="M414.54 267.728C416.448 267.825 418.353 267.477 420.103 266.71C421.854 265.944 423.402 264.781 424.625 263.312C425.848 261.844 426.712 260.111 427.149 258.251C427.587 256.391 427.585 254.455 427.144 252.596C426.704 250.736 425.836 249.005 424.611 247.539C423.385 246.073 421.836 244.912 420.084 244.149C418.332 243.386 416.427 243.04 414.519 243.141C412.61 243.241 410.752 243.785 409.09 244.728L411.27 250.728L406.79 246.438C405.595 247.521 404.626 248.829 403.94 250.288C403.253 251.747 402.862 253.327 402.79 254.938C402.73 256.077 402.835 257.219 403.1 258.328C403.727 260.925 405.183 263.246 407.247 264.942C409.311 266.638 411.871 267.616 414.54 267.728Z" fill="#66BFBF"/>
<path opacity="0.1" d="M418.05 231.498C420.89 231.808 423.65 232.688 426.5 232.868C429.35 233.048 432.5 232.358 434.29 230.148C435.124 228.86 435.882 227.524 436.56 226.148C437.341 224.934 438.409 223.931 439.67 223.228C440.468 224.789 440.923 226.502 441.006 228.252C441.089 230.003 440.796 231.751 440.149 233.38C439.501 235.009 438.513 236.48 437.251 237.697C435.989 238.913 434.482 239.845 432.83 240.432C431.178 241.019 429.421 241.246 427.674 241.098C425.928 240.951 424.233 240.432 422.703 239.577C421.173 238.722 419.843 237.55 418.803 236.139C417.763 234.729 417.035 233.112 416.67 231.398C417.12 231.408 417.58 231.448 418.05 231.498Z" fill="black"/>
<path opacity="0.1" d="M414.54 267.728C416.662 267.826 418.772 267.373 420.667 266.414C422.563 265.456 424.178 264.023 425.356 262.256C426.534 260.489 427.236 258.448 427.392 256.33C427.549 254.212 427.156 252.089 426.25 250.168C425.271 250.827 424.429 251.669 423.77 252.648C423.035 254.05 422.22 255.409 421.33 256.718C419.42 258.968 416.14 259.718 413.17 259.568C410.2 259.418 407.33 258.568 404.37 258.318C403.96 258.318 403.54 258.258 403.13 258.248C403.741 260.855 405.186 263.191 407.245 264.902C409.304 266.613 411.866 267.605 414.54 267.728Z" fill="black"/>
<path opacity="0.1" d="M444.42 287.638C446.522 287.739 448.614 287.3 450.497 286.361C452.38 285.423 453.991 284.018 455.176 282.279C456.361 280.54 457.08 278.527 457.265 276.431C457.449 274.335 457.093 272.227 456.23 270.308C455.217 270.974 454.335 271.821 453.63 272.808C452.824 274.243 451.932 275.629 450.96 276.958C448.88 279.268 445.39 280.088 442.24 279.958C439.09 279.828 436.24 279.148 433.24 278.958C433.983 281.38 435.455 283.514 437.456 285.067C439.457 286.621 441.889 287.519 444.42 287.638Z" fill="black"/>
<path opacity="0.1" d="M438.34 311.538C439.785 314.324 442.239 316.452 445.201 317.489C448.163 318.525 451.41 318.391 454.276 317.114C457.143 315.838 459.413 313.514 460.624 310.619C461.835 307.724 461.894 304.475 460.79 301.538C459.772 302.198 458.861 303.011 458.09 303.948C456.92 305.368 456.09 306.948 454.79 308.318C452.27 310.788 448.21 311.808 444.59 311.898C442.501 311.899 440.415 311.779 438.34 311.538Z" fill="black"/>
<path d="M645.47 250.342C641.99 246.862 633.62 241.612 629.47 239.652C624.68 237.352 622.92 237.392 619.53 239.842C616.71 241.842 614.88 243.772 611.64 243.062C608.4 242.352 601.98 237.512 595.77 231.322C589.56 225.132 584.74 218.752 584.05 215.462C583.36 212.172 585.26 210.382 587.28 207.562C589.72 204.172 589.79 202.412 587.47 197.622C585.47 193.472 580.28 185.122 576.77 181.622C573.26 178.122 572.5 178.892 570.58 179.622C568.604 180.45 566.706 181.454 564.91 182.622C561.43 184.952 559.48 186.892 558.11 189.812C556.74 192.732 555.19 198.152 563.16 212.342C569.039 223.197 576.486 233.127 585.26 241.812C593.974 250.606 603.938 258.066 614.83 263.952C629.01 271.952 634.44 270.362 637.36 269.002C640.28 267.642 642.22 265.712 644.54 262.202C645.71 260.407 646.714 258.509 647.54 256.532C648.2 254.612 648.98 253.832 645.47 250.342Z" fill="#66BFBF"/>
<path opacity="0.1" d="M602.05 128C582.268 127.99 562.927 133.848 546.474 144.832C530.022 155.817 517.197 171.434 509.622 189.709C502.047 207.983 500.062 228.094 503.919 247.497C507.776 266.9 517.301 284.722 531.289 298.711C545.278 312.699 563.1 322.224 582.503 326.081C601.906 329.938 622.017 327.953 640.291 320.378C658.566 312.803 674.183 299.978 685.168 283.526C696.152 267.073 702.01 247.732 702 227.95C701.987 201.446 691.452 176.031 672.711 157.289C653.969 138.548 628.554 128.013 602.05 128ZM602.05 314.62C584.908 314.62 568.152 309.537 553.899 300.013C539.646 290.49 528.537 276.954 521.977 261.117C515.418 245.28 513.701 227.854 517.045 211.042C520.39 194.229 528.644 178.786 540.765 166.665C552.886 154.544 568.329 146.29 585.142 142.945C601.954 139.601 619.38 141.318 635.217 147.877C651.054 154.437 664.59 165.546 674.113 179.799C683.637 194.052 688.72 210.808 688.72 227.95C688.72 239.332 686.478 250.602 682.123 261.117C677.767 271.632 671.383 281.187 663.335 289.235C655.287 297.283 645.732 303.667 635.217 308.023C624.702 312.378 613.432 314.62 602.05 314.62Z" fill="black"/>
<path d="M452.69 401.212L422.76 431.662C422.707 431.712 422.666 431.773 422.637 431.84C422.608 431.907 422.594 431.979 422.594 432.052C422.594 432.125 422.608 432.197 422.637 432.264C422.666 432.331 422.707 432.392 422.76 432.442L443.76 454.772C444.262 455.278 444.604 455.921 444.742 456.621C444.88 457.321 444.809 458.046 444.536 458.705C444.264 459.364 443.803 459.928 443.211 460.326C442.619 460.724 441.923 460.938 441.21 460.942C440.25 460.94 439.33 460.559 438.65 459.882L417.76 437.632C417.653 437.527 417.51 437.468 417.36 437.468C417.21 437.468 417.067 437.527 416.96 437.632L411.87 442.772C409.786 444.903 407.297 446.596 404.549 447.752C401.802 448.908 398.851 449.503 395.87 449.502C392.833 449.488 389.829 448.869 387.034 447.681C384.238 446.492 381.708 444.759 379.59 442.582L374.7 437.582C374.593 437.477 374.45 437.418 374.3 437.418C374.15 437.418 374.007 437.477 373.9 437.582L353.06 459.782C352.725 460.118 352.326 460.384 351.888 460.566C351.45 460.748 350.98 460.842 350.505 460.842C350.03 460.842 349.56 460.748 349.122 460.566C348.684 460.384 348.285 460.118 347.95 459.782C347.613 459.447 347.345 459.049 347.163 458.611C346.98 458.172 346.886 457.702 346.886 457.227C346.886 456.752 346.98 456.282 347.163 455.843C347.345 455.405 347.613 455.007 347.95 454.672L368.87 432.392C368.963 432.283 369.014 432.145 369.014 432.002C369.014 431.859 368.963 431.721 368.87 431.612L338.94 401.162C338.863 401.085 338.765 401.032 338.658 401.011C338.551 400.989 338.44 401 338.339 401.042C338.238 401.084 338.152 401.154 338.092 401.245C338.032 401.336 338 401.443 338 401.552V462.482C338.008 464.837 338.947 467.094 340.613 468.759C342.278 470.425 344.535 471.364 346.89 471.372H444.76C447.115 471.364 449.372 470.425 451.037 468.759C452.703 467.094 453.642 464.837 453.65 462.482V401.602C453.655 401.489 453.625 401.376 453.563 401.281C453.502 401.185 453.413 401.111 453.308 401.068C453.202 401.026 453.087 401.017 452.976 401.042C452.865 401.068 452.766 401.127 452.69 401.212Z" fill="#66BFBF"/>
<path d="M395.43 442.87C397.459 442.89 399.471 442.502 401.347 441.729C403.223 440.956 404.924 439.814 406.35 438.37L449.94 394C448.393 392.718 446.449 392.012 444.44 392H346.5C344.49 392.007 342.545 392.714 341 394L384.6 438.37C386.013 439.805 387.7 440.943 389.56 441.716C391.42 442.489 393.416 442.881 395.43 442.87Z" fill="#66BFBF"/>
<path opacity="0.1" d="M394.05 330C374.268 329.99 354.927 335.848 338.474 346.832C322.022 357.817 309.197 373.434 301.622 391.709C294.047 409.983 292.062 430.094 295.919 449.497C299.776 468.9 309.301 486.722 323.289 500.711C337.278 514.699 355.101 524.224 374.503 528.081C393.906 531.938 414.017 529.953 432.291 522.378C450.566 514.803 466.183 501.978 477.168 485.526C488.152 469.073 494.01 449.732 494 429.95C493.987 403.446 483.452 378.031 464.711 359.289C445.969 340.548 420.554 330.013 394.05 330ZM394.05 516.62C376.908 516.62 360.152 511.537 345.899 502.014C331.646 492.49 320.537 478.954 313.977 463.117C307.418 447.28 305.701 429.854 309.045 413.042C312.39 396.229 320.644 380.786 332.765 368.665C344.886 356.544 360.329 348.29 377.142 344.945C393.954 341.601 411.38 343.318 427.217 349.877C443.054 356.437 456.59 367.546 466.114 381.799C475.637 396.052 480.72 412.808 480.72 429.95C480.72 452.936 471.589 474.981 455.335 491.235C439.081 507.489 417.036 516.62 394.05 516.62Z" fill="black"/>
<path d="M200.85 267L161 358.94L164.72 362.66L200.86 346.72L237 362.66L240.72 358.94L200.85 267Z" fill="#66BFBF"/>
<path opacity="0.1" d="M196.05 216C176.27 215.99 156.931 221.847 140.479 232.829C124.028 243.811 111.203 259.425 103.626 277.697C96.0499 295.969 94.0629 316.077 97.9149 335.478C101.768 354.88 111.288 372.703 125.272 386.693C139.255 400.683 157.073 410.212 176.473 414.075C195.872 417.937 215.981 415.96 234.257 408.393C252.532 400.825 268.153 388.008 279.143 371.562C290.134 355.116 296 335.78 296 316C296 289.487 285.471 264.059 266.728 245.307C247.986 226.555 222.563 216.013 196.05 216ZM196.05 402.62C178.906 402.62 162.147 397.536 147.894 388.01C133.64 378.484 122.531 364.945 115.973 349.106C109.414 333.266 107.701 315.837 111.049 299.023C114.397 282.209 122.657 266.766 134.783 254.647C146.909 242.528 162.357 234.278 179.172 230.939C195.988 227.601 213.416 229.324 229.252 235.892C245.088 242.459 258.62 253.576 268.138 267.835C277.655 282.095 282.73 298.856 282.72 316C282.717 338.985 273.585 361.027 257.331 377.279C241.078 393.53 219.035 402.66 196.05 402.66V402.62Z" fill="black"/>
<path opacity="0.1" d="M736.23 410.728C737.554 408.016 739.758 405.833 742.482 404.535C745.206 403.236 748.29 402.899 751.23 403.578C753.287 402.308 755.636 401.586 758.052 401.482C760.468 401.379 762.87 401.896 765.029 402.986C767.188 404.075 769.031 405.7 770.383 407.705C771.735 409.71 772.55 412.028 772.75 414.438C772.75 414.048 772.75 413.658 772.75 413.258C772.745 410.743 772.068 408.275 770.791 406.108C769.514 403.942 767.682 402.155 765.484 400.932C763.286 399.709 760.802 399.095 758.288 399.152C755.773 399.209 753.32 399.936 751.18 401.258C748.24 400.579 745.156 400.916 742.432 402.215C739.708 403.513 737.504 405.696 736.18 408.408C734.531 409.968 733.226 411.856 732.349 413.95C731.473 416.044 731.044 418.298 731.09 420.568C731.09 420.968 731.09 421.358 731.09 421.748C731.286 417.541 733.133 413.582 736.23 410.728Z" fill="black"/>
<path d="M826.39 413.728C829 408.898 826.04 402.968 822.63 398.658C819.22 394.348 815.08 389.868 815.17 384.368C815.29 376.478 823.67 371.818 830.37 367.628C835.337 364.515 839.916 360.823 844.01 356.628C845.73 355.021 847.152 353.121 848.21 351.018C849.59 347.928 849.55 344.418 849.47 341.018C849.177 329.751 848.62 318.498 847.8 307.258" stroke="#3F3D56" stroke-width="4" stroke-miterlimit="10"/>
<path d="M860.52 306.658C860.425 304.598 859.812 302.594 858.739 300.833C857.666 299.071 856.167 297.608 854.38 296.578L851.62 302.028L851.7 295.428C850.388 295.036 849.018 294.871 847.65 294.938C845.218 295.051 842.874 295.884 840.915 297.329C838.955 298.775 837.469 300.769 836.643 303.06C835.817 305.35 835.689 307.834 836.275 310.197C836.861 312.56 838.135 314.697 839.935 316.336C841.735 317.976 843.981 319.044 846.389 319.407C848.797 319.77 851.258 319.411 853.461 318.375C855.665 317.339 857.511 315.673 858.768 313.587C860.024 311.501 860.634 309.09 860.52 306.658Z" fill="#66BFBF"/>
<path d="M838.57 389.988C837.279 392.499 835.163 394.491 832.578 395.627C829.994 396.764 827.096 396.978 824.373 396.233C821.649 395.487 819.264 393.828 817.619 391.533C815.973 389.238 815.166 386.447 815.334 383.628C815.502 380.81 816.633 378.134 818.539 376.05C820.445 373.967 823.01 372.602 825.803 372.185C828.596 371.767 831.447 372.323 833.879 373.758C836.311 375.193 838.176 377.421 839.16 380.068L831.47 386.328L839.93 384.328C839.938 386.297 839.472 388.238 838.57 389.988Z" fill="#66BFBF"/>
<path d="M832.49 366.078C829.468 366.223 826.498 365.251 824.148 363.345C821.797 361.44 820.231 358.736 819.747 355.75C819.263 352.763 819.897 349.703 821.526 347.153C823.155 344.604 825.666 342.744 828.58 341.928L828.52 346.998L831.31 341.488C834.572 341.339 837.759 342.49 840.172 344.69C842.586 346.889 844.027 349.956 844.18 353.218C844.257 354.833 844.014 356.447 843.466 357.968C842.919 359.489 842.077 360.887 840.988 362.083C839.9 363.278 838.586 364.247 837.123 364.934C835.659 365.622 834.075 366.014 832.46 366.088L832.49 366.078Z" fill="#66BFBF"/>
<path d="M862.37 346.198C860.462 346.295 858.557 345.947 856.807 345.18C855.056 344.414 853.508 343.251 852.285 341.782C851.062 340.314 850.198 338.581 849.761 336.721C849.323 334.861 849.325 332.925 849.766 331.066C850.206 329.206 851.074 327.475 852.299 326.009C853.525 324.543 855.074 323.382 856.826 322.619C858.578 321.856 860.483 321.51 862.391 321.611C864.3 321.711 866.158 322.255 867.82 323.198L865.64 329.198L870.12 324.898C871.314 325.982 872.281 327.29 872.968 328.749C873.654 330.208 874.046 331.788 874.12 333.398C874.18 334.537 874.076 335.679 873.81 336.788C873.183 339.386 871.728 341.709 869.664 343.406C867.6 345.104 865.04 346.084 862.37 346.198Z" fill="#66BFBF"/>
<path opacity="0.1" d="M858.87 309.938C856.03 310.258 853.26 311.138 850.41 311.318C847.56 311.498 844.41 310.808 842.62 308.588C841.784 307.301 841.026 305.966 840.35 304.588C839.57 303.377 838.506 302.374 837.25 301.668C836.452 303.229 835.997 304.942 835.914 306.692C835.831 308.443 836.124 310.191 836.771 311.82C837.419 313.449 838.407 314.92 839.669 316.137C840.931 317.353 842.438 318.285 844.09 318.872C845.742 319.459 847.499 319.686 849.246 319.538C850.992 319.391 852.687 318.872 854.217 318.017C855.747 317.162 857.077 315.99 858.117 314.579C859.157 313.169 859.885 311.552 860.25 309.838C859.79 309.858 859.33 309.888 858.87 309.938Z" fill="black"/>
<path opacity="0.1" d="M862.37 346.198C860.248 346.296 858.138 345.843 856.243 344.884C854.347 343.926 852.732 342.493 851.554 340.726C850.376 338.959 849.674 336.918 849.518 334.8C849.361 332.682 849.754 330.559 850.66 328.638C851.639 329.293 852.481 330.132 853.14 331.108C853.871 332.512 854.686 333.872 855.58 335.178C857.49 337.438 860.77 338.178 863.74 338.038C866.71 337.898 869.58 337.038 872.54 336.788C872.95 336.788 873.37 336.718 873.78 336.708C873.169 339.316 871.725 341.653 869.666 343.366C867.607 345.078 865.045 346.073 862.37 346.198Z" fill="black"/>
<path opacity="0.1" d="M832.49 366.078C830.386 366.181 828.291 365.742 826.405 364.803C824.519 363.863 822.906 362.455 821.721 360.714C820.536 358.972 819.817 356.956 819.635 354.857C819.453 352.758 819.813 350.648 820.68 348.728C821.689 349.399 822.57 350.246 823.28 351.228C824.28 352.578 824.83 354.138 825.95 355.378C828.03 357.698 831.52 358.508 834.67 358.438C837.82 358.368 840.67 357.618 843.67 357.388C842.928 359.811 841.455 361.946 839.455 363.501C837.454 365.057 835.021 365.956 832.49 366.078Z" fill="black"/>
<path opacity="0.1" d="M838.57 389.988C837.102 392.735 834.648 394.823 831.702 395.834C828.756 396.844 825.537 396.702 822.692 395.434C819.847 394.167 817.587 391.869 816.368 389.004C815.149 386.138 815.06 382.917 816.12 379.988C817.136 380.651 818.046 381.463 818.82 382.398C820 383.828 820.77 385.398 822.12 386.778C824.64 389.248 828.7 390.258 832.32 390.358C834.409 390.356 836.496 390.232 838.57 389.988Z" fill="black"/>
<path opacity="0.1" d="M1021.37 498.198C1019.25 498.296 1017.14 497.843 1015.24 496.884C1013.35 495.926 1011.73 494.493 1010.55 492.726C1009.38 490.959 1008.67 488.918 1008.52 486.8C1008.36 484.682 1008.75 482.559 1009.66 480.638C1010.64 481.293 1011.48 482.132 1012.14 483.108C1012.87 484.512 1013.69 485.872 1014.58 487.178C1016.49 489.438 1019.77 490.178 1022.74 490.038C1025.71 489.898 1028.58 489.038 1031.54 488.788C1031.95 488.788 1032.37 488.718 1032.78 488.708C1032.17 491.316 1030.72 493.653 1028.67 495.366C1026.61 497.078 1024.05 498.073 1021.37 498.198Z" fill="black"/>
<path opacity="0.1" d="M997.57 541.988C996.1 544.735 993.65 546.823 990.7 547.834C987.756 548.844 984.537 548.702 981.692 547.434C978.847 546.167 976.587 543.869 975.368 541.004C974.149 538.138 974.06 534.917 975.12 531.988C976.136 532.651 977.046 533.463 977.82 534.398C979 535.828 979.82 537.398 981.12 538.778C983.64 541.248 987.7 542.258 991.32 542.358C993.41 542.356 995.5 542.232 997.57 541.988Z" fill="black"/>
<path opacity="0.1" d="M456.37 434.318C456.355 434.045 456.355 433.771 456.37 433.498C455.244 432.535 454.363 431.318 453.8 429.948C451.751 429.433 449.886 428.357 448.416 426.839C446.946 425.321 445.929 423.423 445.48 421.358C443.947 421.146 442.476 420.615 441.162 419.798C439.847 418.982 438.719 417.898 437.85 416.618C437.14 416.677 436.426 416.657 435.72 416.558C436.596 417.736 437.696 418.728 438.958 419.478C440.219 420.228 441.617 420.721 443.07 420.928C443.524 422.989 444.542 424.884 446.012 426.399C447.481 427.915 449.343 428.991 451.39 429.508C451.96 430.875 452.84 432.09 453.96 433.058C453.96 433.328 453.96 433.608 453.96 433.888C453.928 435.826 454.664 437.699 456.007 439.096C457.35 440.494 459.192 441.303 461.13 441.348C459.716 440.799 458.503 439.832 457.652 438.576C456.802 437.32 456.355 435.835 456.37 434.318Z" fill="black"/>
<path d="M444.107 422.854C444.683 422.416 444.676 421.438 444.092 420.668C443.507 419.898 442.566 419.629 441.99 420.067C441.414 420.504 441.421 421.483 442.006 422.253C442.59 423.022 443.531 423.292 444.107 422.854Z" fill="#FBBEBE"/>
</g>
<defs>
<clipPath id="clip0">
<rect width="1096" height="575" fill="white"/>
</clipPath>
</defs>
</svg>
