<svg width="118" height="119" viewBox="0 0 118 119" fill="none" xmlns="http://www.w3.org/2000/svg">
<rect width="118" height="119" fill="black"/>
<rect width="118" height="119" fill="#E4F9F5"/>
<path d="M93.3301 46.5407C89.2996 43.0725 85.3154 39.0817 79.6721 39.0817C76.7518 39.0817 73.5018 40.9552 71.3437 42.7986C69.5327 44.3455 69.1794 45.6107 68.3828 47.7503C68.0653 48.6028 67.4422 49.2852 67.1228 50.119C66.8854 50.7389 67.022 51.5598 67.022 52.2106C67.022 54.0419 67.1906 54.9559 68.6096 56.2803C70.0408 57.616 71.914 58.2365 73.2715 59.594C75.2632 61.5857 77.3235 63.3923 79.4705 65.2134C81.3269 66.7881 83.9356 68.4522 85.1656 70.5557C87.4964 74.5419 88.2143 78.4844 87.3201 83.0546C86.9971 84.7055 86.4671 86.323 85.7199 87.8172C84.7514 89.7543 83.0535 90.4301 81.0833 91.0932C79.0972 91.7615 77.2765 92.3378 75.2622 91.4334C72.5156 90.2002 70.329 88.958 68.0678 86.9101C65.6912 84.7577 62.9397 81.0131 62.9397 77.6115" stroke="#66BFBF" stroke-linecap="round" stroke-linejoin="round"/>
<path d="M52.2603 25.0048C51.0459 34.5176 46.9893 43.5484 45.0533 52.9257C43.6894 59.5323 41.5244 65.8756 40.8702 72.5812C40.8323 72.9693 40.3091 74.7461 40.9962 74.8491C45.8195 75.5726 51.2119 73.8199 55.8386 72.7324C59.6851 71.8283 63.592 71.1364 67.4555 70.3637" stroke="#66BFBF" stroke-linecap="round" stroke-linejoin="round"/>
</svg>
